<?xml version="1.0" encoding="UTF-8" standalone="no"?>
<svg
   xmlns:dc="http://purl.org/dc/elements/1.1/"
   xmlns:cc="http://creativecommons.org/ns#"
   xmlns:rdf="http://www.w3.org/1999/02/22-rdf-syntax-ns#"
   xmlns:svg="http://www.w3.org/2000/svg"
   xmlns="http://www.w3.org/2000/svg"
   xmlns:sodipodi="http://sodipodi.sourceforge.net/DTD/sodipodi-0.dtd"
   xmlns:inkscape="http://www.inkscape.org/namespaces/inkscape"
   sodipodi:docname="Si Icon 2.svg"
   inkscape:version="1.0.1 (3bc2e813f5, 2020-09-07)"
   id="svg8"
   version="1.1"
   viewBox="0 0 297 296.99999"
   height="1122.5197"
   width="1122.5197"
   inkscape:export-filename="/home/silas/Documents/Si Icon 2.png"
   inkscape:export-xdpi="183.73199"
   inkscape:export-ydpi="183.73199">
  <defs
     id="defs2" />
  <sodipodi:namedview
     inkscape:window-maximized="1"
     inkscape:window-y="26"
     inkscape:window-x="0"
     inkscape:window-height="680"
     inkscape:window-width="1365"
     units="px"
     showgrid="false"
     inkscape:document-rotation="0"
     inkscape:current-layer="text843"
     inkscape:document-units="mm"
     inkscape:cy="684.67953"
     inkscape:cx="532.44882"
     inkscape:zoom="0.35"
     inkscape:pageshadow="2"
     inkscape:pageopacity="0"
     borderopacity="1"
     bordercolor="#ffffff"
     pagecolor="#454545"
     id="base" />
  <metadata
     id="metadata5">
    <rdf:RDF>
      <cc:Work
         rdf:about="">
        <dc:format>image/svg+xml</dc:format>
        <dc:type
           rdf:resource="http://purl.org/dc/dcmitype/StillImage" />
        <dc:title></dc:title>
      </cc:Work>
    </rdf:RDF>
  </metadata>
  <g
     id="layer1"
     inkscape:groupmode="layer"
     inkscape:label="Layer 1">
    <g
       id="g859"
       transform="matrix(4.0157851,0,0,4.0157851,-77.62288,-254.82001)">
      <path
         style="fill:#f8e600;fill-opacity:1;stroke:none;stroke-width:0.182133px;stroke-linecap:butt;stroke-linejoin:miter;stroke-opacity:1"
         d="m 32.011698,108.72111 -2.000668,10.67893 c 0,0 -13.322911,-8.74593 -6.433486,-18.55955 7.168344,-10.210942 56.479829,2.97332 61.184261,-7.984899 C 89.466225,81.897378 74.372824,76.73937 74.372824,76.73937 c 0,0 24.643541,5.076959 14.155791,16.280971 -10.487751,11.204009 -53.393121,-0.666495 -58.123478,10.354849 -0.852397,2.76826 1.606561,5.34592 1.606561,5.34592"
         id="path853"
         sodipodi:nodetypes="ccczczcc" />
      <g
         aria-label="Si"
         transform="matrix(0.64732468,0,0,0.73203661,-45.732611,-5.219097)"
         id="text843"
         style="font-weight:600;font-size:84.3959px;line-height:1.25;font-family:'Myriad Pro';-inkscape-font-specification:'Myriad Pro Semi-Bold';fill:#f7f7f7;fill-opacity:1;stroke:none;stroke-width:0.558244">
        <path
           d="m 162.66978,131.25254 q -4.36815,-2.43133 -7.8297,-3.42034 -3.46155,-0.98902 -6.96431,-0.98902 -2.80221,0 -4.45056,1.19506 -1.60715,1.19506 -1.60715,3.13188 0,1.81319 1.31868,3.13188 1.31869,1.31868 5.68684,3.7088 7.00552,3.70881 9.76651,7.66486 2.80221,3.91485 2.80221,9.97257 0,5.72804 -3.21429,10.21981 -3.17309,4.49178 -8.81872,6.67585 -5.60441,2.18407 -13.31048,2.18407 -5.60442,0 -10.50828,-1.23627 -4.86265,-1.27747 -8.53025,-3.2555 l 3.09067,-14.58796 q 7.87091,5.81046 15.94786,5.81046 6.42859,0 6.42859,-4.5742 0,-2.06044 -1.60715,-3.42034 -1.56594,-1.4011 -5.5632,-3.21429 -6.67585,-3.13188 -9.56048,-7.00552 -2.84341,-3.91485 -2.84341,-9.97257 0,-5.72804 3.13188,-10.34344 3.13188,-4.65661 8.57145,-6.96431 5.43958,-2.3489 12.60994,-2.3489 5.68683,0 10.17861,1.03022 4.53298,1.03022 8.20057,2.34891 z"
           style="font-style:italic;font-variant:normal;font-weight:900;font-stretch:normal;font-family:'Segoe UI';-inkscape-font-specification:'Segoe UI Heavy Italic';stroke-width:0.558244"
           id="path845" />
        <path
           d="m 193.37043,119.67283 c 0,2.6099 -0.96154,4.72529 -2.88462,6.34617 -1.89561,1.62089 -4.39562,2.43133 -7.50003,2.43133 -2.74726,0 -4.98628,-0.71429 -6.71705,-2.14286 -1.73078,-1.45605 -2.59617,-3.26925 -2.59617,-5.43958 0,-2.63737 0.96154,-4.7665 2.88463,-6.38739 1.92308,-1.64835 4.45056,-2.47253 7.58244,-2.47253 2.69232,0 4.90387,0.71429 6.63464,2.14286 1.73077,1.40111 2.59616,3.24177 2.59616,5.522 z m -2.96599,43.61623 c -2.24863,8.35318 -6.76485,10.72 -12.59796,11.40877 -6.82771,1.33873 -14.41809,-1.67475 -12.1673,-10.08158 l 4.82498,-22.25448 c 0.23148,-3.32586 0.78595,-5.4975 -5.30651,-9.81643 h 25.16332 c 0,0 -12.38935,35.77574 -7.42531,36.90889 3.13068,0.19893 4.86163,-2.2329 7.50878,-6.16517 z"
           style="font-style:italic;font-variant:normal;font-weight:900;font-stretch:normal;font-family:'Segoe UI';-inkscape-font-specification:'Segoe UI Heavy Italic';stroke-width:0.558244"
           id="path847"
           sodipodi:nodetypes="scscscscscccccccc" />
      </g>
    </g>
  </g>
</svg>
